<svg width="155" height="136" viewBox="0 0 155 136" fill="none" xmlns="http://www.w3.org/2000/svg">
<path d="M36.8125 118V106.912H43.4205L43.1485 108.784H39.4365V111.728H42.6685V113.6H39.4365V118H36.8125ZM48.6069 109.264C48.9162 109.264 49.1989 109.301 49.4549 109.376L49.0549 111.824C48.7349 111.749 48.4789 111.712 48.2869 111.712C47.7855 111.712 47.4015 111.888 47.1349 112.24C46.8789 112.581 46.6762 113.099 46.5269 113.792V118H43.9989V109.504H46.2069L46.4149 111.152C46.6069 110.565 46.8949 110.107 47.2789 109.776C47.6735 109.435 48.1162 109.264 48.6069 109.264ZM57.3444 113.584C57.3444 113.936 57.3284 114.24 57.2964 114.496H52.0324C52.1177 115.211 52.3204 115.712 52.6404 116C52.9604 116.288 53.403 116.432 53.9684 116.432C54.3097 116.432 54.6404 116.373 54.9604 116.256C55.2804 116.128 55.627 115.936 56.0004 115.68L57.0404 117.088C56.0484 117.877 54.9444 118.272 53.7284 118.272C52.3524 118.272 51.2964 117.867 50.5604 117.056C49.8244 116.245 49.4564 115.157 49.4564 113.792C49.4564 112.928 49.611 112.155 49.9204 111.472C50.2297 110.779 50.683 110.235 51.2804 109.84C51.8777 109.435 52.5924 109.232 53.4244 109.232C54.651 109.232 55.611 109.616 56.3044 110.384C56.9977 111.152 57.3444 112.219 57.3444 113.584ZM54.8644 112.864C54.843 111.563 54.3844 110.912 53.4884 110.912C53.051 110.912 52.7097 111.072 52.4644 111.392C52.2297 111.712 52.0857 112.24 52.0324 112.976H54.8644V112.864ZM66.1725 113.584C66.1725 113.936 66.1565 114.24 66.1245 114.496H60.8605C60.9458 115.211 61.1485 115.712 61.4685 116C61.7885 116.288 62.2312 116.432 62.7965 116.432C63.1378 116.432 63.4685 116.373 63.7885 116.256C64.1085 116.128 64.4552 115.936 64.8285 115.68L65.8685 117.088C64.8765 117.877 63.7725 118.272 62.5565 118.272C61.1805 118.272 60.1245 117.867 59.3885 117.056C58.6525 116.245 58.2845 115.157 58.2845 113.792C58.2845 112.928 58.4392 112.155 58.7485 111.472C59.0578 110.779 59.5112 110.235 60.1085 109.84C60.7058 109.435 61.4205 109.232 62.2525 109.232C63.4792 109.232 64.4392 109.616 65.1325 110.384C65.8258 111.152 66.1725 112.219 66.1725 113.584ZM63.6925 112.864C63.6712 111.563 63.2125 110.912 62.3165 110.912C61.8792 110.912 61.5378 111.072 61.2925 111.392C61.0578 111.712 60.9138 112.24 60.8605 112.976H63.6925V112.864ZM77.2775 118L76.7015 115.616H73.4695L72.9095 118H70.1895L73.5335 106.912H76.7175L80.0615 118H77.2775ZM73.9175 113.712H76.2535L75.0855 108.816L73.9175 113.712ZM84.507 109.232C85.0937 109.232 85.6217 109.317 86.091 109.488C86.5603 109.659 87.003 109.92 87.419 110.272L86.331 111.776C85.7977 111.371 85.259 111.168 84.715 111.168C84.1497 111.168 83.723 111.376 83.435 111.792C83.147 112.208 83.003 112.88 83.003 113.808C83.003 114.704 83.147 115.339 83.435 115.712C83.723 116.085 84.139 116.272 84.683 116.272C84.971 116.272 85.2323 116.229 85.467 116.144C85.7017 116.048 85.9843 115.899 86.315 115.696L87.419 117.264C86.5763 117.936 85.6217 118.272 84.555 118.272C83.691 118.272 82.9443 118.091 82.315 117.728C81.6857 117.355 81.2003 116.837 80.859 116.176C80.5177 115.504 80.347 114.72 80.347 113.824C80.347 112.928 80.5177 112.133 80.859 111.44C81.2003 110.747 81.6857 110.208 82.315 109.824C82.9443 109.429 83.675 109.232 84.507 109.232ZM91.8508 109.232C92.4374 109.232 92.9654 109.317 93.4348 109.488C93.9041 109.659 94.3468 109.92 94.7628 110.272L93.6748 111.776C93.1414 111.371 92.6028 111.168 92.0588 111.168C91.4934 111.168 91.0668 111.376 90.7788 111.792C90.4908 112.208 90.3468 112.88 90.3468 113.808C90.3468 114.704 90.4908 115.339 90.7788 115.712C91.0668 116.085 91.4828 116.272 92.0268 116.272C92.3148 116.272 92.5761 116.229 92.8108 116.144C93.0454 116.048 93.3281 115.899 93.6588 115.696L94.7628 117.264C93.9201 117.936 92.9654 118.272 91.8988 118.272C91.0348 118.272 90.2881 118.091 89.6588 117.728C89.0294 117.355 88.5441 116.837 88.2028 116.176C87.8614 115.504 87.6908 114.72 87.6908 113.824C87.6908 112.928 87.8614 112.133 88.2028 111.44C88.5441 110.747 89.0294 110.208 89.6588 109.824C90.2881 109.429 91.0188 109.232 91.8508 109.232ZM102.923 113.584C102.923 113.936 102.907 114.24 102.875 114.496H97.6105C97.6958 115.211 97.8985 115.712 98.2185 116C98.5385 116.288 98.9812 116.432 99.5465 116.432C99.8878 116.432 100.219 116.373 100.539 116.256C100.859 116.128 101.205 115.936 101.579 115.68L102.619 117.088C101.627 117.877 100.523 118.272 99.3065 118.272C97.9305 118.272 96.8745 117.867 96.1385 117.056C95.4025 116.245 95.0345 115.157 95.0345 113.792C95.0345 112.928 95.1892 112.155 95.4985 111.472C95.8078 110.779 96.2612 110.235 96.8585 109.84C97.4558 109.435 98.1705 109.232 99.0025 109.232C100.229 109.232 101.189 109.616 101.883 110.384C102.576 111.152 102.923 112.219 102.923 113.584ZM100.443 112.864C100.421 111.563 99.9625 110.912 99.0665 110.912C98.6292 110.912 98.2878 111.072 98.0425 111.392C97.8078 111.712 97.6638 112.24 97.6105 112.976H100.443V112.864ZM107.335 109.232C107.943 109.232 108.513 109.323 109.047 109.504C109.58 109.685 110.049 109.941 110.455 110.272L109.527 111.696C108.833 111.259 108.135 111.04 107.431 111.04C107.1 111.04 106.844 111.099 106.663 111.216C106.492 111.323 106.407 111.477 106.407 111.68C106.407 111.84 106.444 111.973 106.519 112.08C106.604 112.176 106.769 112.277 107.015 112.384C107.26 112.491 107.639 112.619 108.151 112.768C109.036 113.024 109.692 113.36 110.119 113.776C110.556 114.181 110.775 114.747 110.775 115.472C110.775 116.048 110.609 116.549 110.279 116.976C109.948 117.392 109.495 117.712 108.919 117.936C108.343 118.16 107.703 118.272 106.999 118.272C106.284 118.272 105.617 118.16 104.999 117.936C104.391 117.712 103.873 117.403 103.447 117.008L104.679 115.632C105.393 116.187 106.145 116.464 106.935 116.464C107.319 116.464 107.617 116.395 107.831 116.256C108.055 116.117 108.167 115.92 108.167 115.664C108.167 115.461 108.124 115.301 108.039 115.184C107.953 115.067 107.788 114.96 107.543 114.864C107.297 114.757 106.908 114.629 106.375 114.48C105.532 114.235 104.903 113.893 104.487 113.456C104.071 113.019 103.863 112.475 103.863 111.824C103.863 111.333 104.001 110.896 104.279 110.512C104.567 110.117 104.972 109.808 105.495 109.584C106.028 109.349 106.641 109.232 107.335 109.232ZM114.96 109.232C115.568 109.232 116.138 109.323 116.672 109.504C117.205 109.685 117.674 109.941 118.08 110.272L117.152 111.696C116.458 111.259 115.76 111.04 115.056 111.04C114.725 111.04 114.469 111.099 114.288 111.216C114.117 111.323 114.032 111.477 114.032 111.68C114.032 111.84 114.069 111.973 114.144 112.08C114.229 112.176 114.394 112.277 114.64 112.384C114.885 112.491 115.264 112.619 115.776 112.768C116.661 113.024 117.317 113.36 117.744 113.776C118.181 114.181 118.4 114.747 118.4 115.472C118.4 116.048 118.234 116.549 117.904 116.976C117.573 117.392 117.12 117.712 116.544 117.936C115.968 118.16 115.328 118.272 114.624 118.272C113.909 118.272 113.242 118.16 112.624 117.936C112.016 117.712 111.498 117.403 111.072 117.008L112.304 115.632C113.018 116.187 113.77 116.464 114.56 116.464C114.944 116.464 115.242 116.395 115.456 116.256C115.68 116.117 115.792 115.92 115.792 115.664C115.792 115.461 115.749 115.301 115.664 115.184C115.578 115.067 115.413 114.96 115.168 114.864C114.922 114.757 114.533 114.629 114 114.48C113.157 114.235 112.528 113.893 112.112 113.456C111.696 113.019 111.488 112.475 111.488 111.824C111.488 111.333 111.626 110.896 111.904 110.512C112.192 110.117 112.597 109.808 113.12 109.584C113.653 109.349 114.266 109.232 114.96 109.232Z" fill="white"/>
<path d="M77.4396 16.1317C78.9226 14.8967 81.0767 14.8967 82.5597 16.1317L82.6066 16.1718C83.8044 17.1693 85.4737 17.3799 86.882 16.7118L86.9376 16.6854C88.6811 15.858 90.7673 16.393 91.8966 17.9579L91.9327 18.0087C92.8448 19.2726 94.4085 19.8915 95.9386 19.5946L96.0001 19.5829C97.8946 19.2153 99.7809 20.2531 100.485 22.0497L100.509 22.1073C101.078 23.5582 102.438 24.5466 103.994 24.6395L104.056 24.6434C105.982 24.7583 107.553 26.2328 107.788 28.1483L107.796 28.2098C107.987 29.7566 109.058 31.0523 110.542 31.5292L110.602 31.5487C112.439 32.1393 113.593 33.9572 113.345 35.871L113.336 35.9325C113.136 37.4782 113.852 39 115.171 39.8309L115.224 39.8641C116.856 40.893 117.522 42.9413 116.806 44.7333L116.782 44.7909C116.204 46.2382 116.519 47.8896 117.59 49.0223L117.632 49.0682C118.958 50.4708 119.094 52.62 117.954 54.1776L117.917 54.2274C116.997 55.4855 116.891 57.1638 117.647 58.5272L117.677 58.5819C118.612 60.2699 118.209 62.3849 116.718 63.6102L116.67 63.6503C115.466 64.6401 114.945 66.2394 115.338 67.7479L115.354 67.8075C115.84 69.6752 114.923 71.6243 113.174 72.4403L113.117 72.4667C111.705 73.126 110.804 74.5458 110.809 76.1044L110.81 76.1659C110.816 78.0957 109.443 79.7558 107.546 80.1112L107.485 80.1219C105.953 80.4092 104.727 81.5611 104.344 83.0721L104.329 83.1317C103.855 85.0024 102.112 86.268 100.187 86.1405L100.125 86.1366C98.5698 86.0338 97.0962 86.8444 96.3497 88.2128L96.3195 88.2675C95.395 89.9611 93.3929 90.7535 91.5597 90.1512L91.5011 90.1327C90.0201 89.6462 88.3907 90.0641 87.3273 91.204L87.2853 91.2489C85.9687 92.6598 83.8322 92.9299 82.2062 91.8905L82.1544 91.8573C80.8409 91.0177 79.1583 91.0177 77.8448 91.8573L77.7931 91.8905C76.167 92.9296 74.0304 92.66 72.714 91.2489L72.672 91.204C71.6086 90.0641 69.9792 89.6461 68.4982 90.1327L68.4396 90.1512C66.6064 90.7533 64.6041 89.9612 63.6798 88.2675L63.6495 88.2128C62.903 86.8443 61.4296 86.0337 59.8741 86.1366L59.8116 86.1405C57.8863 86.2676 56.1439 85.0022 55.67 83.1317L55.6554 83.0721C55.2726 81.5609 54.0461 80.4091 52.5138 80.1219L52.4532 80.1112C50.5565 79.7557 49.1834 78.0956 49.1896 76.1659L49.1906 76.1044C49.1956 74.5457 48.2944 73.1259 46.882 72.4667L46.8253 72.4403C45.0766 71.6243 44.1598 69.6751 44.6456 67.8075L44.6613 67.7479C45.0539 66.2392 44.5336 64.64 43.3292 63.6503L43.2814 63.6102C41.7908 62.385 41.3876 60.2699 42.3224 58.5819L42.3527 58.5272C43.1079 57.1637 43.0024 55.4855 42.0822 54.2274L42.045 54.1776C40.9058 52.6202 41.0413 50.4708 42.3663 49.0682L42.4093 49.0223C43.4799 47.8896 43.7952 46.2382 43.2169 44.7909L43.1935 44.7333C42.4773 42.9414 43.1431 40.8931 44.7755 39.8641L44.8282 39.8309C46.1471 39 46.8634 37.4783 46.6632 35.9325L46.6544 35.871C46.4063 33.9573 47.5607 32.1394 49.3976 31.5487L49.4572 31.5292C50.941 31.0523 52.0126 29.7567 52.2032 28.2098L52.2111 28.1483C52.4467 26.2329 54.0171 24.7585 55.9435 24.6434L56.005 24.6395C57.5608 24.5467 58.921 23.5582 59.4904 22.1073L59.5138 22.0497C60.2183 20.2531 62.1048 19.2154 63.9991 19.5829L64.0607 19.5946C65.5908 19.8916 67.1543 19.2725 68.0665 18.0087L68.1027 17.9579C69.232 16.393 71.3182 15.8581 73.0616 16.6854L73.1173 16.7118C74.5256 17.3801 76.1948 17.1691 77.3927 16.1718L77.4396 16.1317ZM79.9991 20.4169C61.4521 20.4173 46.4164 35.4528 46.4161 53.9999C46.4163 72.547 61.4521 87.5825 79.9991 87.5829C98.5466 87.5829 113.582 72.5473 113.582 53.9999C113.582 35.4525 98.5466 20.4169 79.9991 20.4169ZM79.9991 22.9999C97.1198 22.9999 110.999 36.8793 110.999 53.9999C110.999 71.1205 97.1199 84.9999 79.9991 84.9999C62.8788 84.9994 48.9993 71.1203 48.9991 53.9999C48.9994 36.8795 62.8788 23.0003 79.9991 22.9999ZM73.5753 32.9999C72.1267 33 70.9525 34.1743 70.9523 35.6229V57.3202C70.9522 57.7449 70.4472 57.9673 70.1339 57.6805L66.2462 54.1219C65.3913 53.3392 64.1738 53.0571 63.0792 53.4384C62.263 53.7232 61.5547 54.3189 61.1486 55.1591C60.648 56.7978 61.4811 58.1007 62.6447 59.2108C63.0406 59.5886 66.9547 63.3609 67.2892 63.6923C67.3098 63.7132 70.5945 67.0626 70.7755 67.287C72.6196 69.5824 74.4676 71.8876 77.757 71.8876H86.9943C91.2806 71.8875 94.7797 68.5189 94.9904 64.285C94.9966 64.2114 95.0001 64.1366 95.0001 64.0614V47.955C95.0001 46.5063 93.8257 45.3321 92.3771 45.3319C90.9282 45.3319 89.7531 46.5061 89.7531 47.955V48.0038C89.7528 48.2898 89.5215 48.5212 89.2355 48.5214C88.9586 48.5214 88.7338 48.2972 88.7335 48.0204V46.6874C88.7333 45.2388 87.5591 44.0645 86.1105 44.0643C84.6617 44.0643 83.4867 45.2387 83.4865 46.6874V47.9989C83.4863 48.2877 83.2528 48.5213 82.964 48.5214H82.9357C82.6764 48.5212 82.4669 48.3109 82.4669 48.0516V45.8807L82.465 45.8817C82.465 44.4328 81.2908 43.2587 79.8419 43.2587C78.3931 43.2588 77.2189 44.4329 77.2189 45.8817V48.0497C77.2188 48.3105 77.0071 48.5223 76.7462 48.5223H76.6075C76.3819 48.5223 76.1993 48.3388 76.1993 48.1132V35.6229C76.1991 34.1742 75.0241 32.9999 73.5753 32.9999Z" fill="white"/>
</svg>
