<svg width="155" height="136" viewBox="0 0 155 136" fill="none" xmlns="http://www.w3.org/2000/svg">
<path d="M21.4977 106.64C22.3297 106.64 23.0497 106.757 23.6577 106.992C24.2764 107.227 24.8364 107.584 25.3377 108.064L24.1217 109.488C23.3644 108.869 22.5537 108.56 21.6897 108.56C21.231 108.56 20.8684 108.656 20.6017 108.848C20.335 109.029 20.2017 109.296 20.2017 109.648C20.2017 109.893 20.2604 110.096 20.3777 110.256C20.495 110.405 20.703 110.549 21.0017 110.688C21.3004 110.827 21.7484 110.992 22.3457 111.184C23.4764 111.547 24.3084 111.995 24.8417 112.528C25.375 113.051 25.6417 113.797 25.6417 114.768C25.6417 115.461 25.4657 116.075 25.1137 116.608C24.7617 117.131 24.255 117.541 23.5937 117.84C22.9324 118.128 22.1484 118.272 21.2417 118.272C20.335 118.272 19.5297 118.128 18.8257 117.84C18.1324 117.552 17.535 117.168 17.0337 116.688L18.3617 115.232C18.7884 115.595 19.2257 115.867 19.6737 116.048C20.1324 116.229 20.6284 116.32 21.1617 116.32C21.7057 116.32 22.1324 116.203 22.4417 115.968C22.7617 115.723 22.9217 115.387 22.9217 114.96C22.9217 114.683 22.863 114.453 22.7457 114.272C22.6284 114.08 22.4257 113.909 22.1377 113.76C21.8497 113.611 21.4337 113.451 20.8897 113.28C19.663 112.907 18.7884 112.448 18.2657 111.904C17.7537 111.36 17.4977 110.672 17.4977 109.84C17.4977 109.2 17.6684 108.64 18.0097 108.16C18.351 107.669 18.8257 107.296 19.4337 107.04C20.0417 106.773 20.7297 106.64 21.4977 106.64ZM34.4459 113.584C34.4459 113.936 34.4299 114.24 34.3979 114.496H29.1339C29.2193 115.211 29.4219 115.712 29.7419 116C30.0619 116.288 30.5046 116.432 31.0699 116.432C31.4113 116.432 31.7419 116.373 32.0619 116.256C32.3819 116.128 32.7286 115.936 33.1019 115.68L34.1419 117.088C33.1499 117.877 32.0459 118.272 30.8299 118.272C29.4539 118.272 28.3979 117.867 27.6619 117.056C26.9259 116.245 26.5579 115.157 26.5579 113.792C26.5579 112.928 26.7126 112.155 27.0219 111.472C27.3313 110.779 27.7846 110.235 28.3819 109.84C28.9793 109.435 29.6939 109.232 30.5259 109.232C31.7526 109.232 32.7126 109.616 33.4059 110.384C34.0993 111.152 34.4459 112.219 34.4459 113.584ZM31.9659 112.864C31.9446 111.563 31.4859 110.912 30.5899 110.912C30.1526 110.912 29.8113 111.072 29.5659 111.392C29.3313 111.712 29.1873 112.24 29.1339 112.976H31.9659V112.864ZM39.5461 109.232C40.1327 109.232 40.6607 109.317 41.1301 109.488C41.5994 109.659 42.0421 109.92 42.4581 110.272L41.3701 111.776C40.8367 111.371 40.2981 111.168 39.7541 111.168C39.1887 111.168 38.7621 111.376 38.4741 111.792C38.1861 112.208 38.0421 112.88 38.0421 113.808C38.0421 114.704 38.1861 115.339 38.4741 115.712C38.7621 116.085 39.1781 116.272 39.7221 116.272C40.0101 116.272 40.2714 116.229 40.5061 116.144C40.7407 116.048 41.0234 115.899 41.3541 115.696L42.4581 117.264C41.6154 117.936 40.6607 118.272 39.5941 118.272C38.7301 118.272 37.9834 118.091 37.3541 117.728C36.7247 117.355 36.2394 116.837 35.8981 116.176C35.5567 115.504 35.3861 114.72 35.3861 113.824C35.3861 112.928 35.5567 112.133 35.8981 111.44C36.2394 110.747 36.7247 110.208 37.3541 109.824C37.9834 109.429 38.7141 109.232 39.5461 109.232ZM50.5341 118H48.3421L48.2301 116.928C47.6114 117.824 46.7527 118.272 45.6541 118.272C44.8754 118.272 44.2834 118.037 43.8781 117.568C43.4834 117.099 43.2861 116.443 43.2861 115.6V109.504H45.8141V115.28C45.8141 115.696 45.8781 115.989 46.0061 116.16C46.1447 116.32 46.3527 116.4 46.6301 116.4C47.1634 116.4 47.6221 116.069 48.0061 115.408V109.504H50.5341V118ZM57.1303 109.264C57.4397 109.264 57.7223 109.301 57.9783 109.376L57.5783 111.824C57.2583 111.749 57.0023 111.712 56.8103 111.712C56.309 111.712 55.925 111.888 55.6583 112.24C55.4023 112.581 55.1997 113.099 55.0503 113.792V118H52.5223V109.504H54.7303L54.9383 111.152C55.1303 110.565 55.4183 110.107 55.8023 109.776C56.197 109.435 56.6397 109.264 57.1303 109.264ZM65.8678 113.584C65.8678 113.936 65.8518 114.24 65.8198 114.496H60.5558C60.6412 115.211 60.8438 115.712 61.1638 116C61.4838 116.288 61.9265 116.432 62.4918 116.432C62.8332 116.432 63.1638 116.373 63.4838 116.256C63.8038 116.128 64.1505 115.936 64.5238 115.68L65.5638 117.088C64.5718 117.877 63.4678 118.272 62.2518 118.272C60.8758 118.272 59.8198 117.867 59.0838 117.056C58.3478 116.245 57.9798 115.157 57.9798 113.792C57.9798 112.928 58.1345 112.155 58.4438 111.472C58.7532 110.779 59.2065 110.235 59.8038 109.84C60.4012 109.435 61.1158 109.232 61.9478 109.232C63.1745 109.232 64.1345 109.616 64.8278 110.384C65.5212 111.152 65.8678 112.219 65.8678 113.584ZM63.3878 112.864C63.3665 111.563 62.9078 110.912 62.0118 110.912C61.5745 110.912 61.2332 111.072 60.9878 111.392C60.7532 111.712 60.6092 112.24 60.5558 112.976H63.3878V112.864ZM75.1008 106.64C75.8048 106.64 76.4128 106.752 76.9248 106.976C77.4475 107.2 77.8422 107.504 78.1088 107.888C78.3862 108.272 78.5248 108.709 78.5248 109.2C78.5248 109.829 78.3435 110.379 77.9808 110.848C77.6288 111.307 77.1062 111.765 76.4128 112.224L78.5728 114.256C78.8822 113.616 79.1382 112.848 79.3408 111.952L81.4528 112.576C81.0475 113.749 80.5568 114.741 79.9808 115.552L81.9168 117.264L79.7568 118.272L78.5088 117.072C77.5168 117.872 76.3488 118.272 75.0048 118.272C74.2262 118.272 73.5382 118.144 72.9408 117.888C72.3435 117.632 71.8795 117.269 71.5488 116.8C71.2182 116.331 71.0528 115.787 71.0528 115.168C71.0528 114.528 71.2235 113.968 71.5648 113.488C71.9168 113.008 72.4662 112.523 73.2128 112.032C72.6368 111.477 72.2368 111.008 72.0128 110.624C71.7888 110.229 71.6768 109.787 71.6768 109.296C71.6768 108.816 71.8048 108.379 72.0608 107.984C72.3168 107.579 72.7008 107.253 73.2128 107.008C73.7355 106.763 74.3648 106.64 75.1008 106.64ZM75.1328 108.272C74.8128 108.272 74.5622 108.368 74.3808 108.56C74.1995 108.741 74.1088 108.987 74.1088 109.296C74.1088 109.573 74.1728 109.824 74.3008 110.048C74.4395 110.272 74.6795 110.555 75.0208 110.896C75.3942 110.651 75.6662 110.4 75.8368 110.144C76.0182 109.888 76.1088 109.595 76.1088 109.264C76.1088 108.955 76.0182 108.715 75.8368 108.544C75.6662 108.363 75.4315 108.272 75.1328 108.272ZM74.6528 113.392C74.3222 113.637 74.0768 113.893 73.9168 114.16C73.7675 114.416 73.6928 114.704 73.6928 115.024C73.6928 115.461 73.8528 115.813 74.1728 116.08C74.4928 116.347 74.9142 116.48 75.4368 116.48C76.1088 116.48 76.7115 116.277 77.2448 115.872L74.6528 113.392ZM90.6699 106.912C92.1313 106.912 93.2673 107.216 94.0779 107.824C94.8886 108.432 95.2939 109.333 95.2939 110.528C95.2939 111.776 94.8939 112.72 94.0939 113.36C93.3046 113.989 92.2433 114.304 90.9099 114.304H89.7099V118H87.0859V106.912H90.6699ZM90.6859 112.416C91.3046 112.416 91.7739 112.272 92.0939 111.984C92.4246 111.685 92.5899 111.2 92.5899 110.528C92.5899 109.365 91.9393 108.784 90.6379 108.784H89.7099V112.416H90.6859ZM100.927 109.264C101.237 109.264 101.519 109.301 101.775 109.376L101.375 111.824C101.055 111.749 100.799 111.712 100.607 111.712C100.106 111.712 99.7219 111.888 99.4552 112.24C99.1992 112.581 98.9965 113.099 98.8472 113.792V118H96.3192V109.504H98.5272L98.7352 111.152C98.9272 110.565 99.2152 110.107 99.5992 109.776C99.9939 109.435 100.437 109.264 100.927 109.264ZM105.269 109.504V118H102.741V109.504H105.269ZM103.989 105.024C104.426 105.024 104.784 105.163 105.061 105.44C105.349 105.707 105.493 106.048 105.493 106.464C105.493 106.88 105.349 107.227 105.061 107.504C104.784 107.771 104.426 107.904 103.989 107.904C103.552 107.904 103.194 107.771 102.917 107.504C102.64 107.227 102.501 106.88 102.501 106.464C102.501 106.048 102.64 105.707 102.917 105.44C103.194 105.163 103.552 105.024 103.989 105.024ZM114.569 109.504L111.897 118H108.905L106.169 109.504H108.921L110.425 116.08L111.993 109.504H114.569ZM121.852 115.536C121.852 115.856 121.895 116.091 121.98 116.24C122.076 116.389 122.226 116.501 122.428 116.576L121.9 118.224C121.378 118.181 120.951 118.069 120.62 117.888C120.29 117.696 120.034 117.397 119.852 116.992C119.298 117.845 118.444 118.272 117.292 118.272C116.45 118.272 115.778 118.027 115.276 117.536C114.775 117.045 114.524 116.405 114.524 115.616C114.524 114.688 114.866 113.979 115.548 113.488C116.231 112.997 117.218 112.752 118.508 112.752H119.372V112.384C119.372 111.883 119.266 111.541 119.052 111.36C118.839 111.168 118.466 111.072 117.932 111.072C117.655 111.072 117.319 111.115 116.924 111.2C116.53 111.275 116.124 111.381 115.708 111.52L115.132 109.856C115.666 109.653 116.21 109.499 116.764 109.392C117.33 109.285 117.852 109.232 118.332 109.232C119.548 109.232 120.439 109.483 121.004 109.984C121.57 110.485 121.852 111.237 121.852 112.24V115.536ZM118.028 116.464C118.604 116.464 119.052 116.192 119.372 115.648V114.144H118.748C118.172 114.144 117.74 114.245 117.452 114.448C117.175 114.651 117.036 114.965 117.036 115.392C117.036 115.733 117.122 116 117.292 116.192C117.474 116.373 117.719 116.464 118.028 116.464ZM129.194 117.6C128.885 117.813 128.522 117.979 128.106 118.096C127.701 118.213 127.295 118.272 126.89 118.272C125.034 118.261 124.106 117.237 124.106 115.2V111.264H122.906V109.504H124.106V107.664L126.634 107.376V109.504H128.586L128.314 111.264H126.634V115.168C126.634 115.563 126.698 115.845 126.826 116.016C126.954 116.187 127.157 116.272 127.434 116.272C127.722 116.272 128.026 116.181 128.346 116L129.194 117.6ZM137.165 113.584C137.165 113.936 137.149 114.24 137.117 114.496H131.853C131.938 115.211 132.141 115.712 132.461 116C132.781 116.288 133.223 116.432 133.789 116.432C134.13 116.432 134.461 116.373 134.781 116.256C135.101 116.128 135.447 115.936 135.821 115.68L136.861 117.088C135.869 117.877 134.765 118.272 133.549 118.272C132.173 118.272 131.117 117.867 130.381 117.056C129.645 116.245 129.277 115.157 129.277 113.792C129.277 112.928 129.431 112.155 129.741 111.472C130.05 110.779 130.503 110.235 131.101 109.84C131.698 109.435 132.413 109.232 133.245 109.232C134.471 109.232 135.431 109.616 136.125 110.384C136.818 111.152 137.165 112.219 137.165 113.584ZM134.685 112.864C134.663 111.563 134.205 110.912 133.309 110.912C132.871 110.912 132.53 111.072 132.285 111.392C132.05 111.712 131.906 112.24 131.853 112.976H134.685V112.864Z" fill="white"/>
<g clip-path="url(#clip0_3_3093)">
<path d="M42.0879 22.6317C54.722 16.8913 68.0131 14.9059 81.7832 15.6063C91.9732 16.1246 101.756 18.3757 111.141 22.3983C112.264 22.8797 112.646 23.4759 112.623 24.6844C112.546 28.5999 112.595 32.5185 112.595 36.4354C112.666 41.5937 113.038 46.7652 112.22 51.8973C109.389 69.6456 99.8616 82.6419 84.2275 91.2957C82.0845 92.482 79.8786 93.5319 77.584 94.3992C76.9133 94.6525 76.3198 94.6793 75.6611 94.3992C56.4323 86.2245 44.4026 72.3027 41.2607 51.2957C40.4264 45.7159 40.844 40.0987 40.8574 34.4959C40.8656 31.1132 40.9796 27.7307 40.9824 24.3484C40.9834 23.4659 41.2761 23.0003 42.0879 22.6317ZM104.296 23.5506C92.7374 19.4147 80.8078 18.2981 68.6416 19.3074C60.7815 19.9596 53.1973 21.7928 45.9023 24.8299C44.6886 25.3353 44.2454 25.9917 44.2793 27.3035C44.3673 30.6854 44.3086 34.0711 44.3086 37.4549H44.1797C44.1797 39.9928 44.1711 42.5312 44.1816 45.0692C44.2022 49.9576 44.9311 54.7458 46.4482 59.3885C51.3152 74.2836 61.335 84.3921 75.5469 90.5906C76.3721 90.9507 77.0822 90.8347 77.8496 90.5086C81.3429 89.023 84.6679 87.2316 87.7695 85.0408C100.56 76.0084 107.874 63.7675 109.197 48.1082C109.813 40.819 109.058 33.51 109.216 26.2108C109.228 25.663 108.971 25.4261 108.504 25.244C107.096 24.6942 105.718 24.0598 104.296 23.5506ZM66.4121 22.2371C77.3572 20.9624 88.1791 21.6173 98.832 24.532C101.107 25.1545 103.312 25.9856 105.514 26.8289C106.31 27.1339 106.577 27.5807 106.566 28.4119C106.527 31.482 106.551 34.5533 106.551 37.6238L106.55 37.6248C106.923 44.1839 106.803 50.7043 104.894 57.0721C100.536 71.6045 91.0803 81.5568 77.4268 87.7635C76.8616 88.0202 76.3732 88.0196 75.7832 87.7791C58.7563 80.8438 46.8771 63.343 46.8535 45.0672C46.8463 39.5045 46.9554 33.9409 46.9453 28.3777C46.9434 27.4531 47.3954 27.164 48.1006 26.8709C53.9787 24.4301 60.1103 22.9711 66.4121 22.2371ZM85.8252 36.3348C83.241 31.6502 77.7042 29.6845 72.9385 31.9266C69.0292 33.7662 67.0693 37.0298 66.8682 41.3201C66.7852 43.0859 66.8531 44.8591 66.8525 46.6287V46.9549C66.4896 47.0022 66.1608 47.0086 65.8535 47.0916C64.7369 47.3924 64.0205 48.3741 64.0186 49.6121C64.0076 54.8781 64.0045 60.1439 64 65.41C63.9989 66.8546 65.1065 67.975 66.5557 67.9783C71.3466 67.9893 76.1384 67.9972 80.9287 67.9998C83.1298 68.0011 85.3311 67.9917 87.5322 67.9793C88.7552 67.9729 89.8238 67.0757 90.0049 65.8826C90.0606 65.5132 90.0193 65.129 90.0186 64.7518C90.0068 59.6477 89.9945 54.5433 89.9814 49.4393C89.9787 48.3654 89.3254 47.4435 88.2969 47.1238C87.9339 47.0111 87.5397 46.9966 87.0957 46.9266V46.6336C87.0957 44.8744 87.0987 43.1155 87.0947 41.3563C87.0908 39.577 86.6859 37.8955 85.8252 36.3348ZM74.8711 53.9442C75.7552 52.7561 77.4149 52.5249 78.5752 53.4276C80.0117 54.5464 79.8511 56.7192 78.2539 57.5652C77.9416 57.7305 77.9631 57.9418 78.0078 58.2068C78.2463 59.6303 78.4827 61.0542 78.7188 62.4783C78.779 62.8452 78.7677 62.8553 78.3828 62.8553C77.9187 62.8559 77.4544 62.8553 76.9902 62.8553V62.8572C76.5158 62.8572 76.0408 62.8456 75.5664 62.8611C75.3071 62.8695 75.2463 62.7622 75.2832 62.5301C75.4893 61.2324 75.6897 59.9329 75.8926 58.6346C75.9009 58.5816 75.9057 58.5274 75.9219 58.4764C76.0723 57.998 75.9524 57.7143 75.4805 57.4188C74.3095 56.6843 74.0605 55.0324 74.8711 53.9442ZM72.4629 37.0477C75.0966 34.1021 79.7935 34.4138 82.0967 37.6795C82.8433 38.7373 83.273 39.9179 83.3047 41.2078C83.3507 43.074 83.3347 44.9416 83.3438 46.8084C83.3443 46.8608 83.3307 46.9127 83.3203 46.991H70.6982V46.3924C70.6969 44.8814 70.6776 43.3702 70.6982 41.8592C70.7229 40.0547 71.2411 38.414 72.4629 37.0477Z" fill="white"/>
</g>
<defs>
<clipPath id="clip0_3_3093">
<rect width="72" height="79.1276" fill="white" transform="translate(40.7412 15.4715)"/>
</clipPath>
</defs>
</svg>
